<?xml version="1.0" encoding="utf-8"?>
<!-- Generator: Adobe Illustrator 23.0.2, SVG Export Plug-In . SVG Version: 6.00 Build 0)  -->
<svg version="1.1" id="Layer_1" xmlns="http://www.w3.org/2000/svg" xmlns:xlink="http://www.w3.org/1999/xlink" x="0px" y="0px"
	 viewBox="0 0 3365 2000" style="enable-background:new 0 0 3365 2000;" xml:space="preserve">
<style type="text/css">
	.st0{fill:#FFFFFF;}
	.st1{fill:#EAFCFC;}
	.st2{opacity:0.6;fill:#9BC1F9;}
	.st3{opacity:0.3;fill:#9BC1F9;}
	.st4{fill:#5183BF;}
	.st5{fill:#3C8F7C;}
	.st6{fill:#96D9C9;}
	.st7{fill:#50BFA5;}
	.st8{fill:#0E2E35;}
	.st9{fill:#E59F39;}
	.st10{fill:#EAB054;}
	.st11{fill:#F7CC7F;}
	.st12{fill:#F7A491;}
	.st13{fill:#F47458;}
	.st14{fill:#184655;}
	.st15{opacity:0.8;fill:#FFFFFF;}
</style>
<rect class="st0" width="3365" height="2000"/>
<g>
	<path class="st1" d="M926.94,149.11c437.28-25.29,895.75,106.43,828.36,297.38s360.29-67.82,530.97,1.02
		c121.51,49.01,72.94,198.22,131.72,258.34c134.79,137.85,272.63-35.74,444.18,68.41c171.54,104.15,100.21,1078.14,30.37,1078
		l-2645.4-4.83l-31.65,1.02c0,0-194.01-279.78-18.38-443.16c175.63-163.38,55.04-238.08,33.7-301.22
		c-24.51-72.5-81.69-199.11,167.46-292.03c249.15-92.92,184.82-295.1,178.69-336.96C570.83,433.21,489.66,174.4,926.94,149.11
		L926.94,149.11z"/>
	<rect x="2274.84" y="296.58" class="st2" width="200.4" height="1551.12"/>
	<rect x="1994.98" y="769.71" class="st2" width="200.4" height="1077.99"/>
	<rect x="2558.73" y="632.64" class="st2" width="200.4" height="1215.06"/>
	<rect x="1715.11" y="584.86" class="st2" width="200.4" height="1262.84"/>
	<rect x="1435.25" y="959.28" class="st2" width="200.4" height="888.41"/>
	<g>
		<rect x="2274.84" y="654.07" class="st3" width="200.4" height="1193.63"/>
		<rect x="1994.98" y="1018.15" class="st3" width="200.4" height="829.54"/>
		<rect x="2558.73" y="912.68" class="st3" width="200.4" height="935.02"/>
		<rect x="1715.11" y="875.91" class="st3" width="200.4" height="971.79"/>
		<rect x="1435.25" y="1164.04" class="st3" width="200.4" height="683.66"/>
	</g>
	<polygon class="st4" points="2856.53,308.45 2696.85,429.21 2757.76,433.1 2376.58,1103.97 2165.52,787.55 1866.96,1483.96 
		1674.92,1211.19 1435.56,1549.54 1450.62,1610.1 1674.81,1294.72 1877.81,1583.05 2175.28,889.19 2380.06,1196.21 2802.07,453.47 
		2841.25,495.61 	"/>
	<g>
		<path class="st5" d="M1252.99,1399.19c-229.15-182.48-421.69-418.49-567.47-695.62C580.46,787.96,475.4,872.35,370.34,956.75
			c168.56,320.42,391.17,593.32,656.12,804.3C1101.97,1640.42,1177.48,1519.81,1252.99,1399.19z"/>
		<path class="st6" d="M636.17,769.73C570.91,823,505.65,876.26,440.39,929.52c15.54,28.97,9.9,68.06-13.25,87.89
			c148.18,262,333.88,489.64,550.12,674.36c17.68-26.53,51.01-31.68,74.95-12.25c47.61-74.89,95.23-149.79,142.84-224.68
			c-22.04-17.88-25.18-54.43-7.51-80.95c-189.9-162.21-352.97-362.11-483.09-592.19C681.31,801.51,650.47,796.4,636.17,769.73z"/>
		<g>
			<path class="st7" d="M899.9,1368.67c48.93-63.14,48.46-156.29,2.31-212.01c-46.28-55.58-125.34-58.2-180.04-2.01
				c-54.61,56.07-59.83,155.75-7.8,218.32C766.33,1435.62,851.08,1431.71,899.9,1368.67z"/>
			<path class="st5" d="M896.66,1189.49c-6.15,6.83-12.3,13.65-18.45,20.47c14.71,26.96,11.6,54.82-4.26,73.02
				c-16.01,18.33-33.94,20.03-61.26,3.83c-19.85-11.21-29.38-14.52-35.43-7.97c-5.12,5.53-6.81,15.57,4.03,29.28
				c5.89,7.43,11.78,12.4,16.99,15.91c6.95,4.67,9.14,15.22,4.86,23.33l0,0c-4.14,7.84-12.88,10.45-19.58,5.68
				c-5.47-3.9-11.45-9.22-17.9-16.61c-5.32,5.87-10.64,11.74-15.96,17.61c-5.57-6.99-11.11-14.01-16.61-21.07
				c5.79-6.27,11.58-12.55,17.37-18.83c-14.05-27.13-11.26-54.1,5.05-71.21c18-18.9,38.81-13.1,62.67,1.87
				c16.54,10.32,26.13,11.95,32.98,4.33c7.22-8.05,4.87-20.32-4.23-31.92c-6.25-7.97-13.49-14.04-20.64-18.54
				c-7.02-4.42-8.93-15.24-4.21-23.32c0.17-0.3,0.34-0.59,0.52-0.89c4.28-7.34,12.47-9.82,18.71-5.75
				c7.48,4.89,15.53,11.86,22.64,20.14c5.77-6.29,11.55-12.59,17.32-18.89C886.38,1176.51,891.51,1183.02,896.66,1189.49z"/>
			<path class="st7" d="M1080.44,1531.15c-52.22-44.71-102.54-92.1-150.84-142.01c-8.28,10.77-16.56,21.53-24.83,32.29
				c48.98,50.61,100,98.66,152.95,144C1065.29,1554,1072.86,1542.57,1080.44,1531.15z"/>
		</g>
	</g>
	<g>
		<path class="st5" d="M1206.27,1325.62c-287.82-36.5-570.1-132.8-831.96-283.83c-49.78,116.63-99.56,233.27-149.34,349.91
			c302.77,174.62,629.14,285.96,961.93,328.17C1193.35,1588.45,1199.81,1457.03,1206.27,1325.62z"/>
		<path class="st6" d="M363.9,1117.63c-30.51,73.12-61.03,146.23-91.54,219.35c27.64,15.65,41.86,49.33,31.49,76.01
			c256.53,137.89,528.79,230.77,806.52,275.15c2.35-29.42,28.71-49.25,58.96-45.15c4.64-81.94,9.28-163.88,13.92-245.83
			c-27.84-3.78-48.44-31.3-46.1-60.69c-243.89-38.97-482.97-120.54-708.25-241.62C418.56,1121.51,389.33,1132.03,363.9,1117.63z"/>
		<g>
			<path class="st7" d="M885.34,1468.29c11.53-73.23-34.43-146.94-101.68-169.35c-67.28-22.24-137.09,13.06-157.01,83.51
				c-19.91,70.31,24.31,151.88,100,176.95C802.32,1584.56,873.85,1541.4,885.34,1468.29z"/>
			<path class="st5" d="M794.91,1327.62c-1.99,8.32-3.98,16.64-5.97,24.97c25.93,14.44,36.85,38.02,32.01,59.97
				c-4.91,22.11-19.62,31.93-51.22,32c-22.68,0.48-32.57,2.36-34.6,10.42c-1.73,6.81,1.71,15.58,17.81,21.33
				c8.74,3.11,16.27,4.28,22.5,4.59c8.3,0.42,15.36,7.76,15.62,16.22l0,0c0.25,8.18-6.05,14.38-14.19,13.76
				c-6.65-0.51-14.43-1.91-23.63-4.72c-1.74,7.17-3.48,14.35-5.22,21.52c-8.24-2.91-16.48-5.87-24.7-8.87
				c1.95-7.72,3.9-15.43,5.85-23.15c-25.44-14.89-36.21-37.62-30.45-58.9c6.35-23.51,27.23-28.74,55.22-28.14
				c19.38,0.37,28.49-2.87,30.7-12.16c2.32-9.8-5.72-18.43-19.27-23.34c-9.31-3.37-18.56-4.76-26.95-4.96
				c-8.25-0.19-15.19-7.87-15.05-16.52c0-0.32,0.01-0.63,0.01-0.95c0.12-7.85,6-13.69,13.4-13.41c8.87,0.34,19.26,2.07,29.47,5.28
				c1.93-7.72,3.85-15.45,5.78-23.18C779.65,1322.19,787.28,1324.92,794.91,1327.62z"/>
		</g>
	</g>
	<path class="st8" d="M1074.1,744.76c-6.98-2.34-13.85-4.99-20.49-8.18c-7.5-3.6-17.22-7.83-23.36-8.77
		c-12.93-1.99-35.13-0.66-47.39,12.59c-15.28,16.52-42.42,2.98-36.95,89.48c6.19,97.91,60.82,87.16,62.14,85.51
		c1.33-1.66,48.72-62.64,48.72-62.64s16.57,36.13,16.57,34.8C1073.33,886.28,1157.95,772.91,1074.1,744.76z"/>
	<g>
		<path class="st5" d="M1131.68,1390.24c-226.45,89.47-476.31,130.37-736.41,120.54c17.26,110.67,34.52,221.35,51.79,332.03
			c300.73,11.36,589.62-35.93,851.45-139.38C1242.9,1599.04,1187.29,1494.64,1131.68,1390.24z"/>
		<path class="st6" d="M422.49,1573.77c11.33,69.1,22.65,138.19,33.98,207.29c27.32,0.81,53.14,21.08,57.83,45.98
			c250.19,1.83,491.18-37.62,713.89-116.86c-11.79-23.74-1.69-49.88,22.24-59.08c-34.23-65.35-68.45-130.69-102.68-196.04
			c-22.02,8.46-49.66-4.42-61.44-28.14c-195.58,69.59-407.2,104.23-626.91,102.62C464.1,1554.41,447.63,1574.51,422.49,1573.77z"/>
		<g>
			<path class="st7" d="M963.34,1631.99c-25.21-61.42-92.52-99.69-151.8-89.54c-59.23,10.31-93.88,66.19-76.07,128.89
				c17.77,62.59,87.42,107.66,154.07,96.11C956.21,1755.98,988.52,1693.3,963.34,1631.99z"/>
			<path class="st5" d="M832.9,1560.06c2.37,7.26,4.74,14.52,7.11,21.78c25.52,0.58,44.3,14.37,50.85,33.34
				c6.57,19.13,0.36,32.75-22.63,45.73c-16.3,9.65-22.64,15.15-20.43,22.23c1.86,5.98,8.39,11.36,22.77,9.23
				c7.8-1.16,13.82-3.35,18.5-5.65c6.24-3.07,14.75-0.28,18.83,6.17l0,0c3.94,6.23,2.19,13.61-4.02,16.46
				c-5.08,2.33-11.39,4.43-19.38,6.01c2.03,6.27,4.05,12.53,6.07,18.8c-7.34,1.12-14.7,2.2-22.06,3.24
				c-2.12-6.77-4.24-13.55-6.37-20.32c-25.37-1.12-43.65-14.31-49.22-33.16c-6.16-20.8,6.65-33.39,27.32-44.38
				c14.29-7.64,19.44-13.87,16.79-21.97c-2.81-8.54-12.62-11.93-24.75-10.18c-8.33,1.2-15.71,3.9-21.91,7.19
				c-6.1,3.23-14.68,0.12-18.55-6.63c-0.14-0.25-0.28-0.49-0.42-0.74c-3.51-6.13-1.91-13.05,3.61-15.86
				c6.62-3.37,14.98-6.28,23.9-7.96c-2.14-6.77-4.28-13.54-6.43-20.31C819.28,1562.09,826.1,1561.09,832.9,1560.06z"/>
			<path class="st7" d="M1155.23,1569.26c-53.86,19.09-108.86,35.71-164.84,49.82c4.33,10.43,8.65,20.85,12.98,31.28
				c56.77-14.31,112.53-31.16,167.15-50.52C1165.42,1589.65,1160.33,1579.45,1155.23,1569.26z"/>
		</g>
	</g>
	<g>
		<path class="st9" d="M758.05,1755.24v81.08c0,13.11,146.22,23.73,326.59,23.73c180.37,0,326.59-10.63,326.59-23.73v-81.08H758.05z
			"/>
		<g>
			<path class="st10" d="M994.4,1859.14v-103.89H758.05v81.08C758.05,1847.15,857.92,1856.29,994.4,1859.14z"/>
			<path class="st10" d="M1005.4,1859.35c25.37,0.46,51.91,0.7,79.24,0.7c40.72,0,79.7-0.54,115.65-1.53v-103.28h-194.9V1859.35z"/>
			<path class="st10" d="M1213.39,1858.14c116.36-3.63,197.85-12.03,197.85-21.82v-81.08h-197.85V1858.14z"/>
		</g>
		<ellipse class="st9" cx="1084.65" cy="1754.38" rx="326.59" ry="23.73"/>
		<path class="st11" d="M1353.59,1754.38c0,9.09-120.41,16.46-268.94,16.46s-268.94-7.37-268.94-16.46
			c0-9.09,120.41-16.45,268.94-16.45S1353.59,1745.3,1353.59,1754.38z"/>
	</g>
	<g>
		<path class="st9" d="M702.18,1669.45v81.08c0,13.11,146.22,23.73,326.59,23.73s326.59-10.63,326.59-23.73v-81.08H702.18z"/>
		<g>
			<path class="st10" d="M938.53,1773.34v-103.89H702.18v81.08C702.18,1761.36,802.05,1770.5,938.53,1773.34z"/>
			<path class="st10" d="M949.53,1773.56c25.37,0.46,51.91,0.7,79.24,0.7c40.72,0,79.7-0.54,115.65-1.53v-103.28h-194.9V1773.56z"/>
			<path class="st10" d="M1157.51,1772.34c116.36-3.63,197.85-12.03,197.85-21.82v-81.08h-197.85V1772.34z"/>
		</g>
		<ellipse class="st9" cx="1028.77" cy="1668.59" rx="326.59" ry="23.73"/>
		<path class="st11" d="M1297.71,1668.59c0,9.09-120.41,16.45-268.94,16.45c-148.53,0-268.94-7.37-268.94-16.45
			c0-9.09,120.41-16.46,268.94-16.46C1177.3,1652.13,1297.71,1659.5,1297.71,1668.59z"/>
	</g>
	<g>
		<path class="st9" d="M739.41,1581.38v81.08c0,13.11,146.22,23.73,326.59,23.73s326.59-10.63,326.59-23.73v-81.08H739.41z"/>
		<g>
			<path class="st10" d="M975.75,1685.27v-103.89H739.41v81.08C739.41,1673.28,839.27,1682.42,975.75,1685.27z"/>
			<path class="st10" d="M986.76,1685.48c25.37,0.46,51.91,0.7,79.24,0.7c40.72,0,79.7-0.54,115.65-1.53v-103.28h-194.9V1685.48z"/>
			<path class="st10" d="M1194.74,1684.27c116.36-3.63,197.85-12.03,197.85-21.82v-81.08h-197.85V1684.27z"/>
		</g>
		<ellipse class="st9" cx="1066" cy="1580.51" rx="326.59" ry="23.73"/>
		<path class="st11" d="M1334.94,1580.51c0,9.09-120.41,16.45-268.94,16.45c-148.53,0-268.94-7.37-268.94-16.45
			s120.41-16.46,268.94-16.46C1214.53,1564.06,1334.94,1571.43,1334.94,1580.51z"/>
	</g>
	<g>
		<path class="st9" d="M702.18,1494.51v81.08c0,13.11,146.22,23.73,326.59,23.73s326.59-10.63,326.59-23.73v-81.08H702.18z"/>
		<g>
			<path class="st10" d="M938.53,1598.4v-103.89H702.18v81.08C702.18,1586.42,802.05,1595.55,938.53,1598.4z"/>
			<path class="st10" d="M949.53,1598.61c25.37,0.46,51.91,0.7,79.24,0.7c40.72,0,79.7-0.54,115.65-1.53v-103.28h-194.9V1598.61z"/>
			<path class="st10" d="M1157.51,1597.4c116.36-3.63,197.85-12.03,197.85-21.82v-81.08h-197.85V1597.4z"/>
		</g>
		<ellipse class="st9" cx="1028.77" cy="1493.65" rx="326.59" ry="23.73"/>
		<path class="st11" d="M1297.71,1493.65c0,9.09-120.41,16.46-268.94,16.46c-148.53,0-268.94-7.37-268.94-16.46
			c0-9.09,120.41-16.45,268.94-16.45C1177.3,1477.19,1297.71,1484.56,1297.71,1493.65z"/>
	</g>
	<g>
		<path class="st9" d="M2988.82,1748.32v77.97c0,12.6-140.61,22.82-314.07,22.82c-173.46,0-314.07-10.22-314.07-22.82v-77.97
			H2988.82z"/>
		<g>
			<path class="st10" d="M2761.53,1848.22v-99.91h227.29v77.97C2988.82,1836.7,2892.78,1845.49,2761.53,1848.22z"/>
			<path class="st10" d="M2750.95,1848.43c-24.4,0.44-49.92,0.68-76.2,0.68c-39.16,0-76.65-0.52-111.22-1.47v-99.32h187.42V1848.43z
				"/>
			<path class="st10" d="M2550.94,1847.27c-111.9-3.49-190.27-11.57-190.27-20.98v-77.97h190.27V1847.27z"/>
		</g>
		<ellipse class="st9" cx="2674.75" cy="1747.49" rx="314.07" ry="22.82"/>
		<path class="st11" d="M2416.12,1747.49c0,8.74,115.79,15.82,258.63,15.82s258.63-7.08,258.63-15.82s-115.79-15.82-258.63-15.82
			S2416.12,1738.75,2416.12,1747.49z"/>
	</g>
	<g>
		<path class="st9" d="M3042.55,1665.81v77.97c0,12.6-140.61,22.82-314.07,22.82s-314.07-10.22-314.07-22.82v-77.97H3042.55z"/>
		<g>
			<path class="st10" d="M2815.26,1765.72v-99.91h227.29v77.97C3042.55,1754.2,2946.51,1762.98,2815.26,1765.72z"/>
			<path class="st10" d="M2804.69,1765.93c-24.4,0.44-49.92,0.68-76.21,0.68c-39.16,0-76.65-0.52-111.22-1.47v-99.32h187.42V1765.93
				z"/>
			<path class="st10" d="M2604.68,1764.76c-111.9-3.49-190.27-11.57-190.27-20.98v-77.97h190.27V1764.76z"/>
		</g>
		<ellipse class="st9" cx="2728.48" cy="1664.98" rx="314.07" ry="22.82"/>
		<ellipse class="st11" cx="2728.48" cy="1664.98" rx="258.63" ry="15.82"/>
	</g>
	<g>
		<path class="st9" d="M3006.75,1581.11v77.97c0,12.6-140.61,22.82-314.07,22.82c-173.46,0-314.07-10.22-314.07-22.82v-77.97
			H3006.75z"/>
		<g>
			<path class="st10" d="M2779.46,1681.02v-99.91h227.29v77.97C3006.75,1669.5,2910.71,1678.29,2779.46,1681.02z"/>
			<path class="st10" d="M2768.88,1681.23c-24.4,0.44-49.92,0.68-76.2,0.68c-39.16,0-76.65-0.52-111.22-1.47v-99.32h187.42V1681.23z
				"/>
			<path class="st10" d="M2568.88,1680.06c-111.9-3.49-190.27-11.57-190.27-20.98v-77.97h190.27V1680.06z"/>
		</g>
		<ellipse class="st9" cx="2692.68" cy="1580.29" rx="314.07" ry="22.82"/>
		<ellipse class="st11" cx="2692.68" cy="1580.29" rx="258.63" ry="15.82"/>
	</g>
	<g>
		<path class="st9" d="M3042.55,1497.58v77.97c0,12.6-140.61,22.82-314.07,22.82s-314.07-10.22-314.07-22.82v-77.97H3042.55z"/>
		<g>
			<path class="st10" d="M2815.26,1597.48v-99.91h227.29v77.97C3042.55,1585.96,2946.51,1594.75,2815.26,1597.48z"/>
			<path class="st10" d="M2804.69,1597.69c-24.4,0.44-49.92,0.68-76.21,0.68c-39.16,0-76.65-0.52-111.22-1.47v-99.32h187.42V1597.69
				z"/>
			<path class="st10" d="M2604.68,1596.53c-111.9-3.49-190.27-11.57-190.27-20.98v-77.97h190.27V1596.53z"/>
		</g>
		<ellipse class="st9" cx="2728.48" cy="1496.75" rx="314.07" ry="22.82"/>
		<ellipse class="st11" cx="2728.48" cy="1496.75" rx="258.63" ry="15.82"/>
	</g>
	<g>
		<path class="st9" d="M3188.68,1402.83l-18.87,65.87c-3.05,10.65-124.31-14.75-270.85-56.72
			c-146.53-41.97-262.85-84.63-259.8-95.28l18.87-65.87L3188.68,1402.83z"/>
		<g>
			<path class="st10" d="M2972.5,1432.23l24.17-84.4l192.01,55l-18.87,65.87C3167.3,1477.5,3084.04,1461.68,2972.5,1432.23z"/>
			<path class="st10" d="M2963.51,1429.85c-20.72-5.53-42.34-11.51-64.54-17.87c-33.08-9.48-64.62-18.99-93.6-28.16l24.03-83.9
				l158.33,45.35L2963.51,1429.85z"/>
			<path class="st10" d="M2794.83,1380.47c-93.69-30.03-157.94-55.82-155.66-63.76l18.87-65.87l160.74,46.04L2794.83,1380.47z"/>
		</g>
		<path class="st9" d="M2658.24,1250.14c-3.05,10.65,113.27,53.31,259.8,95.28s267.8,67.37,270.85,56.72
			c3.05-10.65-113.27-53.31-259.8-95.28C2782.55,1264.88,2661.29,1239.49,2658.24,1250.14z"/>
		<path class="st11" d="M2705.07,1263.55c-2.12,7.38,93.99,41.39,214.66,75.95s220.2,56.6,222.32,49.21
			c2.12-7.38-93.99-41.39-214.66-75.95C2806.72,1278.2,2707.19,1256.17,2705.07,1263.55z"/>
	</g>
	<g>
		<path class="st9" d="M3017.08,949.5l20.09,65.5c3.25,10.59-112.26,55.4-257.98,100.09c-145.73,44.69-266.5,72.34-269.75,61.75
			l-20.09-65.5L3017.08,949.5z"/>
		<g>
			<path class="st10" d="M2851.87,1092l-25.74-83.94l190.95-58.56l20.09,65.5C3039.85,1023.76,2961.43,1055.89,2851.87,1092z"/>
			<path class="st10" d="M2843.03,1094.9c-20.38,6.66-41.77,13.43-63.85,20.2c-32.9,10.09-64.53,19.31-93.82,27.42l-25.59-83.44
				l157.46-48.29L2843.03,1094.9z"/>
			<path class="st10" d="M2674.7,1145.45c-94.91,25.9-162.83,39.3-165.26,31.4l-20.09-65.5l159.85-49.02L2674.7,1145.45z"/>
		</g>
		<path class="st9" d="M2489.14,1110.65c3.25,10.59,124.02-17.06,269.74-61.75c145.73-44.69,261.23-89.5,257.98-100.09
			c-3.25-10.59-124.02,17.06-269.74,61.75C2601.39,1055.25,2485.89,1100.06,2489.14,1110.65z"/>
		<path class="st11" d="M2535.72,1096.37c2.25,7.34,101.36-16.54,221.36-53.34c120-36.8,215.46-72.59,213.21-79.93
			c-2.25-7.34-101.36,16.54-221.36,53.34C2628.92,1053.24,2533.46,1089.02,2535.72,1096.37z"/>
	</g>
	<path class="st12" d="M1295.07,1764.48c0,0,7.76,41.19,7.77,41.28c0.43,5.37,0.27,18.94,1.43,23.63
		c4.36,17.61,78.45-25.2,59.01-28.64c-1.76-0.31-14.51-13.21-17.43-18.68c-5.08-9.5-9.75-27.21-9.75-27.21L1295.07,1764.48z"/>
	<path class="st13" d="M1359.6,1798.17c0,0-19.13,4.74-28.86,5.71c-9.73,0.97-22.23-14.15-29.21-11.29
		c-7.68,3.15-11.87,51.12-11.87,51.12s122.21,5.57,151.09-2.41C1452.21,1838.14,1397.63,1812.74,1359.6,1798.17z"/>
	<path class="st12" d="M1465.47,1762.6c0,0,7.76,41.19,7.77,41.28c0.43,5.37,0.27,18.94,1.43,23.63
		c4.36,17.61,77.09-22.38,57.65-25.82c-1.76-0.31-13.14-16.03-16.06-21.49c-5.08-9.5-9.75-27.21-9.75-27.21L1465.47,1762.6z"/>
	<path class="st13" d="M1528.13,1798.17c0,0-19.13,4.74-28.86,5.71c-9.73,0.97-22.23-14.15-29.21-11.29
		c-7.68,3.15-11.87,51.12-11.87,51.12s122.21,5.57,151.09-2.41C1620.74,1838.14,1566.16,1812.74,1528.13,1798.17z"/>
	<path class="st8" d="M1041.74,1350.23l222.33-51.57c0,0,99.7-26.36,123.77,4.58c24.07,30.94,126.27,457.99,126.27,457.99
		s-52.72,4.58-56.16,2.29l-123.4-219.03c-11.74-20.83-19.46-43.69-22.76-67.37l-8.75-62.72l-90.54,26.36
		c0,0-104.29,22.92-146.69-3.44S1041.74,1350.23,1041.74,1350.23z"/>
	<path class="st10" d="M1127.12,966.93c3.51,0.15,13.13,3.35,27.21,29.86c17.97,33.85,44.23,136.09,44.23,136.09l-78.4,29.1
		l-10.07-21.34l-16.59-164.29C1093.5,976.34,1126.15,966.89,1127.12,966.93z"/>
	<path class="st11" d="M1023.49,952.19c22.42,0.03,77.89,6.55,103.63,14.75c0,0,18.91,162-17.03,285.1
		c-8.04,27.56,6.65,114.23,6.65,114.23l-232.3-3.06c0,0,27.52-209.54,17.15-243.39c-10.37-33.85-10.61-151.8-10.61-151.8
		s1.59-0.25,52.19-8.96C966.78,955,999.55,952.16,1023.49,952.19z"/>
	<path class="st12" d="M888.46,986.03c21.72-8.12,32.35,186.92,35.27,267.19c38.46,3.69,105.5,0.03,122.2-1.22
		c7.85-0.59,25.95-7.2,33.76-8.21c8-1.04,15.25-1.59,19.19-0.91c1.44,0.25,41.54,16.59,44.97,20.17
		c4.25,4.44,15.75,15.65,13.81,20.5c-1.94,4.85-22.11-13.51-22.11-13.51l-9.86-5.51c12.27,11.95,35.68,27.69,32.31,33.42
		c-3.29,5.59-24.41-10.38-39.46-21.27c12.91,11.62,28.95,32.42,25.25,35.66c-3.32,2.91-21.56-21.16-41.06-28.09
		c-7.22-2.57-14.43,4.54-20.11,5.4c-4.18,0.63-10.63,1.98-14.72,0.82l-19.58-1.89c-7.19,0.65-8.9,0.81-16.16,2.35
		c-8.43,1.79-22.26,3.67-33,6.29c-61.82,15.05-82.44,22.04-101.37,22.03C840.45,1319.22,837.12,1005.22,888.46,986.03z"/>
	<path class="st10" d="M847.24,1169.14c-4.07-82.23-3.47-183.58,42.78-200.87c18.25-6.82,50.42,34.2,44.64,202.54
		C909.96,1172.84,873.71,1174.48,847.24,1169.14z"/>
	<path class="st13" d="M1362.4,1118.89l-218.86,14.3c-5.79,0.38-10.78,4.22-12.63,9.72l-56.65,168.76l-120.66,7.88
		c-3.37,0.22-5.93,3.13-5.71,6.5l0,0c0.22,3.37,3.13,5.93,6.51,5.71l343.41-22.43c9.44-0.62,17.64-6.72,20.94-15.58l57.98-155.59
		C1380.35,1128.43,1372.75,1118.21,1362.4,1118.89z"/>
	<path class="st0" d="M1253.35,1223.17c-0.44,7.53-6.14,13.33-12.73,12.95c-6.6-0.38-11.59-6.79-11.16-14.33
		c0.44-7.53,6.14-13.33,12.73-12.95C1248.79,1209.22,1253.78,1215.64,1253.35,1223.17z"/>
	<path class="st14" d="M884.58,1357.93l242.28-41.83c0,0,104.75-15.96,128.82,14.98c24.07,30.94,93.97,432.05,93.97,432.05
		s-52.72,4.58-56.16,2.29c-2.66-1.78-66.49-135.5-95.15-195.75c-9.1-19.12-15.5-39.41-19.02-60.29l-9.21-54.59l-30.49,10.5
		c-53.58,18.44-110.66,24.84-166.89,17.86c-23.54-2.92-45.51-7.95-59.14-16.42C871.18,1440.37,884.58,1357.93,884.58,1357.93z"/>
	<path class="st12" d="M1032.63,922.63l4.72,34.99c0,0,10.56,50.4-3.03,60.12c-13.59,9.72-57.79-61.56-57.79-61.56l4.67-88.65
		L1032.63,922.63z"/>
	<path class="st13" d="M979.68,896.26c11.23,30.24,37.96,48.82,56.94,56.03l-4-29.66l-51.44-55.1L979.68,896.26z"/>
	<path class="st12" d="M1029.84,771.06c28.8-4.63,54.63,18.45,53.91,47.18c-0.31,12.49-1.34,28.08-3.94,44.87
		c-6.26,40.39-33.91,75.95-52.19,72.77c-18.28-3.18-64.28-38.01-56.18-95.49C976.43,804.92,999.62,775.92,1029.84,771.06z"/>
	<path class="st12" d="M984.12,847.26c-1.54,8.88-8.68,15.06-15.94,13.8c-7.26-1.26-11.9-9.48-10.36-18.36
		c1.54-8.88,8.68-15.06,15.94-13.8C981.02,830.16,985.66,838.38,984.12,847.26z"/>
	<path class="st8" d="M973.76,828.9c0,0,22.1,5.47,30.31-8.69c8.2-14.17,37.53-44.74,74.82-32.06
		c37.29,12.68-32.81-30.82-35.79-30.82s-38.78-0.25-38.78-0.25s-27.59,22.62-28.59,25.11c-0.99,2.49-8.95,29.58-8.95,29.58
		L973.76,828.9z"/>
	<g>
		
			<rect x="2056.86" y="1645.3" transform="matrix(-1 -1.224647e-16 1.224647e-16 -1 4663.9277 3490.8545)" class="st7" width="550.21" height="200.25"/>
		<g>
			
				<rect x="2056.86" y="1674.48" transform="matrix(-1 -1.224647e-16 1.224647e-16 -1 4663.9277 3374.7295)" class="st6" width="550.21" height="25.76"/>
			
				<rect x="2056.86" y="1724.8" transform="matrix(-1 -1.224647e-16 1.224647e-16 -1 4663.9277 3475.3701)" class="st6" width="550.21" height="25.76"/>
			
				<rect x="2056.86" y="1775.13" transform="matrix(-1 -1.224647e-16 1.224647e-16 -1 4663.9277 3576.0127)" class="st6" width="550.21" height="25.76"/>
			
				<rect x="2056.86" y="1819.79" transform="matrix(-1 -1.224647e-16 1.224647e-16 -1 4663.9277 3665.3467)" class="st6" width="550.21" height="25.76"/>
			
				<rect x="2261.68" y="1645.3" transform="matrix(-1 -1.224647e-16 1.224647e-16 -1 4637.792 3490.8545)" class="st11" width="114.43" height="200.25"/>
		</g>
		
			<rect x="2600.39" y="1645.3" transform="matrix(-1 -1.224647e-16 1.224647e-16 -1 5283.875 3490.8545)" class="st5" width="83.09" height="200.25"/>
	</g>
	<rect x="178.13" y="1842.71" class="st8" width="3040.39" height="17.35"/>
	<path class="st15" d="M1469.58,339.16c-5.57-24.26-27.28-42.35-53.23-42.35c-4.76,0-9.38,0.61-13.79,1.76
		c-12.81-27.39-40.6-46.36-72.83-46.36c-8.33,0-16.37,1.27-23.93,3.62c-17.35-28.73-48.87-47.94-84.88-47.94
		c-42.84,0-79.33,27.19-93.16,65.26c-9.79-5.46-21.05-8.58-33.06-8.58c-37.55,0-68,30.44-68,68c0,2.23,0.11,4.43,0.32,6.6H1469.58z"
		/>
	<path class="st15" d="M1669,609.03c-4.22-18.36-20.64-32.05-40.28-32.05c-3.6,0-7.1,0.46-10.43,1.33
		c-9.69-20.73-30.72-35.08-55.11-35.08c-6.31,0-12.39,0.96-18.11,2.74c-13.13-21.74-36.98-36.28-64.23-36.28
		c-32.42,0-60.04,20.58-70.5,49.38c-7.41-4.13-15.93-6.49-25.02-6.49c-28.42,0-51.46,23.04-51.46,51.46c0,1.68,0.09,3.35,0.25,4.99
		H1669z"/>
	<path class="st15" d="M736.45,571.1c3.68-16.01,18-27.95,35.12-27.95c3.14,0,6.19,0.4,9.1,1.16c8.45-18.07,26.79-30.59,48.06-30.59
		c5.5,0,10.8,0.84,15.79,2.39c11.45-18.96,32.25-31.64,56.01-31.64c28.27,0,52.35,17.94,61.48,43.06c6.46-3.6,13.89-5.66,21.81-5.66
		c24.78,0,44.87,20.09,44.87,44.87c0,1.47-0.08,2.92-0.21,4.35H736.45z"/>
	<g>
		<path class="st7" d="M1354.68,799.53l3.9,47.45l27.56-31.04l89.14-73l-76.01,23.95c0,0-37.42,18.18-39.14,20.58
			C1358.4,789.87,1354.68,799.53,1354.68,799.53z"/>
		<polygon class="st6" points="1314.29,779.15 1475.27,742.94 1354.68,799.53 		"/>
		<polygon class="st6" points="1416.59,834.67 1366.97,809.91 1475.27,742.94 		"/>
	</g>
	<g>
		<g>
			<path class="st5" d="M1335.88,825.88c7.43-2.8,12.91-3.4,12.97-3.41l-0.36-3.45c-0.24,0.03-5.98,0.66-13.82,3.61L1335.88,825.88z
				"/>
		</g>
		<g>
			<path class="st5" d="M1256.44,1106.32c6.52-5.96,12.4-12.38,17.46-19.09l2.77,2.09c-5.19,6.88-11.2,13.46-17.88,19.56
				L1256.44,1106.32z M1287.3,1065.16c1.7-3.57,3.27-7.29,4.65-11.06c1.57-4.27,2.96-8.73,4.13-13.25l3.36,0.87
				c-1.2,4.64-2.62,9.21-4.23,13.58c-1.42,3.87-3.03,7.69-4.78,11.35L1287.3,1065.16z M1301.31,989.3l3.47-0.08
				c0.21,9.42-0.06,18.05-0.85,26.4l-3.45-0.33C1301.24,1007.09,1301.52,998.58,1301.31,989.3z M1296.37,937.31l3.43-0.49
				c1.45,10.15,2.49,18.44,3.26,26.1l-3.45,0.35C1298.85,955.66,1297.82,947.41,1296.37,937.31z M1292.49,911.19
				c-1.38-9.35-1.82-18.21-1.31-26.33l3.46,0.22c-0.49,7.88-0.06,16.5,1.28,25.6l0.03,0.2l-3.44,0.47L1292.49,911.19z
				 M1296.85,858.8c3.49-8.54,8.56-15.98,15.06-22.12l2.38,2.52c-6.14,5.8-10.92,12.84-14.23,20.91L1296.85,858.8z"/>
		</g>
	</g>
</g>
</svg>
